<?xml version="1.0" standalone="no"?>
<!DOCTYPE svg PUBLIC "-//W3C//DTD SVG 20010904//EN"
 "http://www.w3.org/TR/2001/REC-SVG-20010904/DTD/svg10.dtd">
<svg version="1.0" xmlns="http://www.w3.org/2000/svg"
 width="1299.000000pt" height="709.000000pt" viewBox="0 0 1299.000000 709.000000"
 preserveAspectRatio="xMidYMid meet">

<g transform="translate(0.000000,709.000000) scale(0.100000,-0.100000)"
fill="#000000" stroke="none">
<path d="M4752 7044 c-736 -123 -1145 -927 -812 -1599 225 -456 717 -697 1225
-600 409 78 751 400 862 810 25 91 27 116 27 285 1 172 -1 192 -27 284 -34
122 -98 260 -167 360 -63 92 -201 225 -297 289 -234 155 -531 218 -811 171z
m-39 -628 c40 -17 95 -71 103 -101 5 -21 9 -22 42 -13 20 6 68 8 107 6 219
-14 379 -212 345 -425 -20 -123 -96 -223 -210 -277 -59 -28 -74 -31 -160 -31
-83 0 -102 3 -150 27 -87 43 -135 90 -176 174 -32 64 -37 85 -38 147 -1 39 2
86 6 103 6 29 4 33 -23 44 -38 16 -84 69 -99 115 -27 82 13 185 87 224 45 24
120 27 166 7z"/>
<path d="M1340 4193 c-618 -1143 -1133 -2093 -1143 -2110 l-19 -33 504 0 503
0 320 590 319 590 1153 0 c634 0 1153 3 1153 6 0 7 -1650 3016 -1660 3027 -3
4 -512 -927 -1130 -2070z"/>
<path d="M9750 5765 l0 -445 500 0 500 0 0 -1670 0 -1670 515 0 515 0 2 1668
3 1667 518 3 517 2 0 445 0 445 -1535 0 -1535 0 0 -445z"/>
<path d="M6437 6193 c-4 -3 -7 -201 -7 -440 l0 -433 1450 0 1450 0 0 440 0
440 -1443 0 c-794 0 -1447 -3 -1450 -7z"/>
<path d="M6426 3279 c-4 -704 -6 -1283 -3 -1285 2 -2 657 -7 1455 -11 l1452
-6 0 446 0 447 -987 2 -988 3 0 400 0 400 343 3 342 2 0 440 0 440 -803 0
-804 0 -7 -1281z"/>
<path d="M4540 3265 l0 -1285 455 0 455 0 0 1285 0 1285 -455 0 -455 0 0
-1285z"/>
<path d="M2620 600 c0 -322 2 -370 15 -370 13 0 15 27 15 179 l0 178 46 42
c73 68 145 88 193 55 44 -31 51 -69 51 -269 0 -158 2 -185 15 -185 22 0 22
397 0 440 -22 42 -53 60 -107 60 -61 0 -93 -13 -150 -61 l-48 -40 0 170 c0
145 -2 171 -15 171 -13 0 -15 -48 -15 -370z"/>
<path d="M6995 956 c-42 -18 -55 -53 -55 -151 l0 -85 -50 0 c-38 0 -50 -4 -50
-15 0 -11 12 -15 50 -15 l50 0 0 -230 c0 -198 2 -230 15 -230 13 0 15 32 15
230 l0 230 60 0 c47 0 60 3 60 15 0 12 -13 15 -61 15 l-61 0 3 85 c5 101 23
128 88 130 46 1 62 12 41 25 -21 14 -70 12 -105 -4z"/>
<path d="M9530 600 c0 -322 2 -370 15 -370 13 0 15 26 15 175 l0 175 36 39
c41 46 107 81 152 81 21 0 43 -10 64 -29 l33 -29 3 -206 c3 -174 6 -206 18
-206 13 0 15 31 12 221 l-3 221 -33 29 c-26 24 -41 29 -82 29 -61 0 -83 -9
-143 -54 -26 -20 -49 -36 -52 -36 -3 0 -5 74 -5 165 0 140 -2 165 -15 165 -13
0 -15 -48 -15 -370z"/>
<path d="M1940 940 c0 -19 7 -20 120 -20 l120 0 0 -345 c0 -338 0 -345 20
-345 20 0 20 7 20 345 l0 345 125 0 c118 0 125 1 125 20 0 19 -7 20 -265 20
-258 0 -265 -1 -265 -20z"/>
<path d="M4040 596 l0 -368 173 4 c162 3 175 4 217 28 60 34 90 87 90 163 0
32 -7 71 -15 87 -21 41 -72 76 -128 91 l-48 12 50 17 c83 28 121 77 121 157
-1 65 -31 117 -85 143 -42 20 -67 23 -211 28 l-164 5 0 -367z m331 314 c54
-15 82 -51 87 -112 3 -44 0 -59 -20 -87 -41 -60 -85 -76 -230 -80 l-128 -3 0
146 0 146 128 0 c70 0 143 -5 163 -10z m-37 -325 c111 -29 151 -78 144 -177
-4 -49 -9 -63 -37 -92 -43 -45 -92 -56 -240 -56 l-121 0 0 170 0 170 98 0 c55
0 123 -7 156 -15z"/>
<path d="M7725 943 c-4 -10 -58 -166 -120 -348 -62 -181 -116 -338 -120 -348
-7 -15 -4 -18 15 -15 21 3 29 19 64 126 l40 122 151 0 151 0 40 -122 c34 -104
44 -124 62 -126 12 -2 22 -2 22 0 0 2 -56 165 -124 363 -116 338 -125 360
-148 363 -17 2 -28 -3 -33 -15z m101 -225 c35 -106 64 -196 64 -200 0 -5 -61
-8 -135 -8 -74 0 -135 3 -135 7 0 18 133 404 137 399 3 -3 34 -92 69 -198z"/>
<path d="M9238 902 c-16 -3 -18 -16 -18 -93 l0 -89 -40 0 c-29 0 -40 -4 -40
-15 0 -11 11 -15 39 -15 l40 0 3 -203 c3 -233 8 -248 79 -267 48 -13 99 -5 99
17 0 11 -7 13 -31 8 -39 -9 -83 10 -98 41 -7 16 -11 95 -11 214 l0 190 65 0
c51 0 65 3 65 15 0 12 -14 15 -65 15 l-64 0 -3 93 c-3 82 -5 92 -20 89z"/>
<path d="M5758 813 l-3 -88 -42 -3 c-29 -2 -43 -8 -43 -18 0 -10 12 -14 45
-14 l45 0 0 -205 c0 -234 4 -247 72 -266 45 -12 98 -4 98 15 0 9 -15 13 -46
12 -38 -1 -50 4 -70 27 -24 28 -24 31 -24 223 l0 194 65 0 c51 0 65 3 65 15 0
12 -14 15 -65 15 l-65 0 0 90 c0 72 -3 90 -15 90 -11 0 -15 -19 -17 -87z"/>
<path d="M10080 870 c0 -27 3 -30 30 -30 27 0 30 3 30 30 0 27 -3 30 -30 30
-27 0 -30 -3 -30 -30z"/>
<path d="M11215 761 c-22 -10 -46 -25 -54 -34 -10 -12 -18 -14 -31 -7 -32 17
-118 12 -160 -10 -80 -41 -106 -167 -50 -242 20 -28 21 -32 6 -40 -24 -13 -48
-66 -41 -89 4 -11 20 -29 37 -39 28 -16 28 -19 10 -24 -71 -23 -98 -123 -46
-171 39 -36 90 -50 184 -50 101 1 146 15 186 56 23 24 29 39 29 74 0 78 -32
96 -213 120 -62 8 -121 19 -132 25 -26 14 -25 44 2 70 18 16 29 19 57 13 99
-21 173 6 209 77 29 58 28 106 -3 165 -24 45 -25 48 -8 61 10 7 32 16 48 20
28 6 44 19 45 37 0 12 -33 7 -75 -12z m-83 -78 c59 -29 77 -131 35 -194 -82
-122 -276 -30 -237 113 14 50 38 76 85 93 42 14 72 11 117 -12z m24 -424 c92
-18 123 -79 67 -131 -41 -38 -94 -51 -180 -46 -80 5 -116 23 -143 71 -13 24
-13 30 0 54 9 15 33 38 55 50 42 24 82 25 201 2z"/>
<path d="M3259 710 c-146 -77 -146 -395 1 -470 46 -24 134 -27 184 -6 30 12
96 80 96 99 0 14 -34 21 -38 7 -3 -7 -19 -29 -37 -48 -28 -31 -39 -36 -90 -40
-67 -5 -109 12 -144 59 -23 32 -56 143 -46 159 4 6 77 10 186 10 l180 0 -6 48
c-11 78 -50 148 -99 177 -53 31 -133 33 -187 5z m165 -30 c37 -22 71 -79 81
-132 l7 -38 -162 0 -163 0 6 40 c7 51 41 107 81 131 41 25 109 25 150 -1z"/>
<path d="M4777 709 c-74 -39 -113 -137 -105 -263 9 -136 70 -215 173 -224 101
-8 165 20 201 89 13 27 13 30 -3 36 -10 4 -19 1 -21 -7 -3 -7 -19 -29 -37 -48
-29 -32 -39 -36 -93 -40 -68 -5 -115 16 -146 63 -20 31 -49 141 -41 155 4 6
77 10 184 10 l179 0 -5 48 c-8 75 -47 148 -97 177 -54 32 -133 33 -189 4z
m169 -29 c34 -21 69 -81 80 -138 l7 -32 -163 0 -163 0 6 40 c7 51 41 107 81
131 41 25 109 25 152 -1z"/>
<path d="M5284 716 c-46 -20 -64 -52 -64 -114 0 -67 25 -95 106 -117 131 -35
162 -46 176 -63 24 -27 30 -69 14 -106 -39 -94 -225 -92 -267 4 -11 23 -16 27
-31 19 -18 -10 -18 -11 -1 -40 30 -51 89 -79 167 -79 81 0 130 20 157 64 23
38 25 113 3 144 -21 30 -77 57 -149 72 -83 17 -121 36 -135 70 -29 70 23 130
113 130 59 0 100 -20 124 -60 19 -32 22 -34 40 -22 19 12 -28 76 -70 96 -42
20 -140 21 -183 2z"/>
<path d="M6439 707 c-69 -46 -99 -117 -99 -232 0 -115 30 -186 99 -232 48 -32
144 -32 192 0 71 48 99 117 99 242 -1 113 -39 193 -112 231 -44 23 -139 18
-179 -9z m197 -50 c88 -95 80 -295 -14 -378 -32 -29 -40 -31 -94 -27 -47 3
-64 10 -88 33 -43 41 -65 107 -65 190 1 81 16 133 53 176 34 41 57 49 121 45
47 -2 58 -7 87 -39z"/>
<path d="M8325 714 c-16 -8 -47 -28 -67 -45 -20 -16 -39 -29 -42 -29 -3 0 -6
18 -6 40 0 29 -4 40 -15 40 -13 0 -15 -34 -15 -245 0 -211 2 -245 15 -245 13
0 15 26 15 175 l0 175 36 39 c41 46 107 81 152 81 21 0 43 -10 64 -29 l33 -29
3 -206 c3 -170 6 -206 18 -206 12 0 14 36 14 216 l0 216 -34 34 c-30 30 -40
34 -87 34 -30 0 -67 -7 -84 -16z"/>
<path d="M10483 712 c-18 -10 -48 -32 -67 -50 -19 -17 -37 -32 -40 -32 -3 0
-6 20 -6 45 0 33 -4 45 -15 45 -13 0 -15 -34 -15 -245 0 -238 1 -245 20 -245
19 0 20 7 20 182 l0 181 42 40 c68 64 130 82 187 52 44 -22 51 -59 51 -266 0
-161 2 -189 15 -189 13 0 15 31 15 216 l0 216 -34 34 c-30 30 -40 34 -87 34
-31 -1 -68 -8 -86 -18z"/>
<path d="M8682 708 c3 -7 42 -115 88 -241 81 -223 83 -228 70 -267 -7 -23 -28
-57 -46 -78 -28 -33 -37 -37 -78 -37 -48 0 -51 -2 -37 -24 12 -19 84 -7 122
19 37 27 55 67 158 356 49 137 92 257 96 267 5 13 2 17 -13 17 -20 0 -30 -27
-151 -380 -18 -52 -19 -54 -28 -30 -5 14 -40 112 -78 218 -57 162 -71 192 -87
192 -12 0 -18 -5 -16 -12z"/>
<path d="M10090 475 c0 -238 1 -245 20 -245 19 0 20 7 20 245 0 238 -1 245
-20 245 -19 0 -20 -7 -20 -245z"/>
</g>
</svg>
